<?xml version="1.0" encoding="UTF-8" standalone="no"?>
<svg
  xmlns:svg="http://www.w3.org/2000/svg" 
  xmlns="http://www.w3.org/2000/svg"
  xmlns:xlink="http://www.w3.org/1999/xlink"
  xmlns:label="http://www.4d.com/2014/label"
  width="160"
  height="160" 
  viewport-fill="#FF00FF"
  viewport-fill-opacity="0">

  <defs>
	
	<rect id="color" width="10" height="10" shape-rendering="crispEdges" fill-opacity="1" stroke="none" stroke-width="1" stroke-opacity="1"/>
	
  </defs>
  
  <defs id="setting" label:landscape="false" label:vertical="false" />   

<use id="color1" x="0" y="0" xlink:href="#color" fill="#FFFFFF"/>
<use id="color2" x="10" y="0" xlink:href="#color" fill="#00FFFF"/>
<use id="color3" x="20" y="0" xlink:href="#color" fill="#0066FF"/>
<use id="color4" x="30" y="0" xlink:href="#color" fill="#0000EE"/>
<use id="color5" x="40" y="0" xlink:href="#color" fill="#9900FF"/>
<use id="color6" x="50" y="0" xlink:href="#color" fill="#990000"/>
<use id="color7" x="60" y="0" xlink:href="#color" fill="#FF0000"/>
<use id="color8" x="70" y="0" xlink:href="#color" fill="#FF9900"/>
<use id="color9" x="80" y="0" xlink:href="#color" fill="#00BB00"/>
<use id="color10" x="90" y="0" xlink:href="#color" fill="#009900"/>
<use id="color11" x="100" y="0" xlink:href="#color" fill="#003366"/>
<use id="color12" x="110" y="0" xlink:href="#color" fill="#444444"/>
<use id="color13" x="120" y="0" xlink:href="#color" fill="#DDDDDD"/>
<use id="color14" x="130" y="0" xlink:href="#color" fill="#006699"/>
<use id="color15" x="140" y="0" xlink:href="#color" fill="#AAAAAA"/>
<use id="color16" x="150" y="0" xlink:href="#color" fill="#000000"/>
<use id="color17" x="0" y="10" xlink:href="#color" fill="#5E00FF"/>
<use id="color18" x="10" y="10" xlink:href="#color" fill="#5604FF"/>
<use id="color19" x="20" y="10" xlink:href="#color" fill="#4800FF"/>
<use id="color20" x="30" y="10" xlink:href="#color" fill="#4B00FF"/>
<use id="color21" x="40" y="10" xlink:href="#color" fill="#3200FF"/>
<use id="color22" x="50" y="10" xlink:href="#color" fill="#2700FF"/>
<use id="color23" x="60" y="10" xlink:href="#color" fill="#1C00FF"/>
<use id="color24" x="70" y="10" xlink:href="#color" fill="#1100FF"/>
<use id="color25" x="80" y="10" xlink:href="#color" fill="#0600FF"/>
<use id="color26" x="90" y="10" xlink:href="#color" fill="#0004FF"/>
<use id="color27" x="100" y="10" xlink:href="#color" fill="#000FFF"/>
<use id="color28" x="110" y="10" xlink:href="#color" fill="#001AFF"/>
<use id="color29" x="120" y="10" xlink:href="#color" fill="#0025FF"/>
<use id="color30" x="130" y="10" xlink:href="#color" fill="#0030FF"/>
<use id="color31" x="140" y="10" xlink:href="#color" fill="#003BFF"/>
<use id="color32" x="150" y="10" xlink:href="#color" fill="#0046FF"/>
<use id="color33" x="0" y="20" xlink:href="#color" fill="#004DFF"/>
<use id="color34" x="10" y="20" xlink:href="#color" fill="#0054FF"/>
<use id="color35" x="20" y="20" xlink:href="#color" fill="#005BFF"/>
<use id="color36" x="30" y="20" xlink:href="#color" fill="#0062FF"/>
<use id="color37" x="40" y="20" xlink:href="#color" fill="#0069FF"/>
<use id="color38" x="50" y="20" xlink:href="#color" fill="#0372FF"/>
<use id="color39" x="60" y="20" xlink:href="#color" fill="#047CFF"/>
<use id="color40" x="70" y="20" xlink:href="#color" fill="#0282FF"/>
<use id="color41" x="80" y="20" xlink:href="#color" fill="#068AFF"/>
<use id="color42" x="90" y="20" xlink:href="#color" fill="#0392FF"/>
<use id="color43" x="100" y="20" xlink:href="#color" fill="#0299FF"/>
<use id="color44" x="110" y="20" xlink:href="#color" fill="#03A0FF"/>
<use id="color45" x="120" y="20" xlink:href="#color" fill="#009FFF"/>
<use id="color46" x="130" y="20" xlink:href="#color" fill="#10AEFF"/>
<use id="color47" x="140" y="20" xlink:href="#color" fill="#07B1FF"/>
<use id="color48" x="150" y="20" xlink:href="#color" fill="#04B8FF"/>
<use id="color49" x="0" y="30" xlink:href="#color" fill="#00C0FF"/>
<use id="color50" x="10" y="30" xlink:href="#color" fill="#04C7FF"/>
<use id="color51" x="20" y="30" xlink:href="#color" fill="#00CEFF"/>
<use id="color52" x="30" y="30" xlink:href="#color" fill="#00D7FF"/>
<use id="color53" x="40" y="30" xlink:href="#color" fill="#03DFFF"/>
<use id="color54" x="50" y="30" xlink:href="#color" fill="#05E6FF"/>
<use id="color55" x="60" y="30" xlink:href="#color" fill="#0AEFFF"/>
<use id="color56" x="70" y="30" xlink:href="#color" fill="#04F6FF"/>
<use id="color57" x="80" y="30" xlink:href="#color" fill="#06FDFF"/>
<use id="color58" x="90" y="30" xlink:href="#color" fill="#00FFF9"/>
<use id="color59" x="100" y="30" xlink:href="#color" fill="#04FFF2"/>
<use id="color60" x="110" y="30" xlink:href="#color" fill="#00FFEB"/>
<use id="color61" x="120" y="30" xlink:href="#color" fill="#00FFE2"/>
<use id="color62" x="130" y="30" xlink:href="#color" fill="#00FFD3"/>
<use id="color63" x="140" y="30" xlink:href="#color" fill="#00FFCA"/>
<use id="color64" x="150" y="30" xlink:href="#color" fill="#00FFC3"/>
<use id="color65" x="0" y="40" xlink:href="#color" fill="#00FFBC"/>
<use id="color66" x="10" y="40" xlink:href="#color" fill="#00FFA6"/>
<use id="color67" x="20" y="40" xlink:href="#color" fill="#00FF90"/>
<use id="color68" x="30" y="40" xlink:href="#color" fill="#00FF7A"/>
<use id="color69" x="40" y="40" xlink:href="#color" fill="#00FF64"/>
<use id="color70" x="50" y="40" xlink:href="#color" fill="#00FF4F"/>
<use id="color71" x="60" y="40" xlink:href="#color" fill="#03FF3C"/>
<use id="color72" x="70" y="40" xlink:href="#color" fill="#00FF0C"/>
<use id="color73" x="80" y="40" xlink:href="#color" fill="#0CFF03"/>
<use id="color74" x="90" y="40" xlink:href="#color" fill="#23FF04"/>
<use id="color75" x="100" y="40" xlink:href="#color" fill="#35FF00"/>
<use id="color76" x="110" y="40" xlink:href="#color" fill="#4BFF00"/>
<use id="color77" x="120" y="40" xlink:href="#color" fill="#60FF00"/>
<use id="color78" x="130" y="40" xlink:href="#color" fill="#76FF00"/>
<use id="color79" x="140" y="40" xlink:href="#color" fill="#8CFF00"/>
<use id="color80" x="150" y="40" xlink:href="#color" fill="#A7FF00"/>
<use id="color81" x="0" y="50" xlink:href="#color" fill="#A7FF00"/>
<use id="color82" x="10" y="50" xlink:href="#color" fill="#B1FF00"/>
<use id="color83" x="20" y="50" xlink:href="#color" fill="#BBFF00"/>
<use id="color84" x="30" y="50" xlink:href="#color" fill="#C5FF00"/>
<use id="color85" x="40" y="50" xlink:href="#color" fill="#D0FF00"/>
<use id="color86" x="50" y="50" xlink:href="#color" fill="#DAFF00"/>
<use id="color87" x="60" y="50" xlink:href="#color" fill="#E4FF00"/>
<use id="color88" x="70" y="50" xlink:href="#color" fill="#EEFF00"/>
<use id="color89" x="80" y="50" xlink:href="#color" fill="#F8FF00"/>
<use id="color90" x="90" y="50" xlink:href="#color" fill="#FFFD00"/>
<use id="color91" x="100" y="50" xlink:href="#color" fill="#FFF300"/>
<use id="color92" x="110" y="50" xlink:href="#color" fill="#FFE900"/>
<use id="color93" x="120" y="50" xlink:href="#color" fill="#FFE000"/>
<use id="color94" x="130" y="50" xlink:href="#color" fill="#FFD500"/>
<use id="color95" x="140" y="50" xlink:href="#color" fill="#FFCB00"/>
<use id="color96" x="150" y="50" xlink:href="#color" fill="#FFC100"/>
<use id="color97" x="0" y="60" xlink:href="#color" fill="#FFB400"/>
<use id="color98" x="10" y="60" xlink:href="#color" fill="#FFA100"/>
<use id="color99" x="20" y="60" xlink:href="#color" fill="#FF8E00"/>
<use id="color100" x="30" y="60" xlink:href="#color" fill="#FF7C00"/>
<use id="color101" x="40" y="60" xlink:href="#color" fill="#FF6900"/>
<use id="color102" x="50" y="60" xlink:href="#color" fill="#FF5600"/>
<use id="color103" x="60" y="60" xlink:href="#color" fill="#FF4300"/>
<use id="color104" x="70" y="60" xlink:href="#color" fill="#FF2801"/>
<use id="color105" x="80" y="60" xlink:href="#color" fill="#FF1E00"/>
<use id="color106" x="90" y="60" xlink:href="#color" fill="#FF0B00"/>
<use id="color107" x="100" y="60" xlink:href="#color" fill="#FF0007"/>
<use id="color108" x="110" y="60" xlink:href="#color" fill="#FF0019"/>
<use id="color109" x="120" y="60" xlink:href="#color" fill="#FF002C"/>
<use id="color110" x="130" y="60" xlink:href="#color" fill="#FF003F"/>
<use id="color111" x="140" y="60" xlink:href="#color" fill="#FF0052"/>
<use id="color112" x="150" y="60" xlink:href="#color" fill="#FF0065"/>
<use id="color113" x="0" y="70" xlink:href="#color" fill="#FF0078"/>
<use id="color114" x="10" y="70" xlink:href="#color" fill="#FF008B"/>
<use id="color115" x="20" y="70" xlink:href="#color" fill="#FF009E"/>
<use id="color116" x="30" y="70" xlink:href="#color" fill="#FF00B1"/>
<use id="color117" x="40" y="70" xlink:href="#color" fill="#FF00C4"/>
<use id="color118" x="50" y="70" xlink:href="#color" fill="#FF00D7"/>
<use id="color119" x="60" y="70" xlink:href="#color" fill="#FF00EA"/>
<use id="color120" x="70" y="70" xlink:href="#color" fill="#FF00FD"/>
<use id="color121" x="80" y="70" xlink:href="#color" fill="#EF03FF"/>
<use id="color122" x="90" y="70" xlink:href="#color" fill="#DC00FF"/>
<use id="color123" x="100" y="70" xlink:href="#color" fill="#C900FF"/>
<use id="color124" x="110" y="70" xlink:href="#color" fill="#B600FF"/>
<use id="color125" x="120" y="70" xlink:href="#color" fill="#A300FF"/>
<use id="color126" x="130" y="70" xlink:href="#color" fill="#9000FF"/>
<use id="color127" x="140" y="70" xlink:href="#color" fill="#7D00FF"/>
<use id="color128" x="150" y="70" xlink:href="#color" fill="#6A00FF"/>
<use id="color129" x="0" y="80" xlink:href="#color" fill="#E0E0FF"/>
<use id="color130" x="10" y="80" xlink:href="#color" fill="#C0C0FF"/>
<use id="color131" x="20" y="80" xlink:href="#color" fill="#A0A0FF"/>
<use id="color132" x="30" y="80" xlink:href="#color" fill="#7F7FFF"/>
<use id="color133" x="40" y="80" xlink:href="#color" fill="#5F5FFF"/>
<use id="color134" x="50" y="80" xlink:href="#color" fill="#4040FF"/>
<use id="color135" x="60" y="80" xlink:href="#color" fill="#2020FF"/>
<use id="color136" x="70" y="80" xlink:href="#color" fill="#0000FF"/>
<use id="color137" x="80" y="80" xlink:href="#color" fill="#000FEC"/>
<use id="color138" x="90" y="80" xlink:href="#color" fill="#0000D8"/>
<use id="color139" x="100" y="80" xlink:href="#color" fill="#0000CF"/>
<use id="color140" x="110" y="80" xlink:href="#color" fill="#0000B0"/>
<use id="color141" x="120" y="80" xlink:href="#color" fill="#00009C"/>
<use id="color142" x="130" y="80" xlink:href="#color" fill="#000088"/>
<use id="color143" x="140" y="80" xlink:href="#color" fill="#000074"/>
<use id="color144" x="150" y="80" xlink:href="#color" fill="#000060"/>
<use id="color145" x="0" y="90" xlink:href="#color" fill="#DFF0FF"/>
<use id="color146" x="10" y="90" xlink:href="#color" fill="#C0E0FF"/>
<use id="color147" x="20" y="90" xlink:href="#color" fill="#A0CFFF"/>
<use id="color148" x="30" y="90" xlink:href="#color" fill="#7FBEFF"/>
<use id="color149" x="40" y="90" xlink:href="#color" fill="#5FB0FF"/>
<use id="color150" x="50" y="90" xlink:href="#color" fill="#40A1FF"/>
<use id="color151" x="60" y="90" xlink:href="#color" fill="#2091FF"/>
<use id="color152" x="70" y="90" xlink:href="#color" fill="#0081FF"/>
<use id="color153" x="80" y="90" xlink:href="#color" fill="#0077EC"/>
<use id="color154" x="90" y="90" xlink:href="#color" fill="#006DD8"/>
<use id="color155" x="100" y="90" xlink:href="#color" fill="#0063C4"/>
<use id="color156" x="110" y="90" xlink:href="#color" fill="#0059B0"/>
<use id="color157" x="120" y="90" xlink:href="#color" fill="#00529C"/>
<use id="color158" x="130" y="90" xlink:href="#color" fill="#004588"/>
<use id="color159" x="140" y="90" xlink:href="#color" fill="#003B74"/>
<use id="color160" x="150" y="90" xlink:href="#color" fill="#003060"/>
<use id="color161" x="0" y="100" xlink:href="#color" fill="#DFFFFF"/>
<use id="color162" x="10" y="100" xlink:href="#color" fill="#C0FFFF"/>
<use id="color163" x="20" y="100" xlink:href="#color" fill="#A0FFFF"/>
<use id="color164" x="30" y="100" xlink:href="#color" fill="#7FFFFF"/>
<use id="color165" x="40" y="100" xlink:href="#color" fill="#5FFFFE"/>
<use id="color166" x="50" y="100" xlink:href="#color" fill="#40FFFE"/>
<use id="color167" x="60" y="100" xlink:href="#color" fill="#20FFFE"/>
<use id="color168" x="70" y="100" xlink:href="#color" fill="#00FFFE"/>
<use id="color169" x="80" y="100" xlink:href="#color" fill="#00ECEA"/>
<use id="color170" x="90" y="100" xlink:href="#color" fill="#00D7D6"/>
<use id="color171" x="100" y="100" xlink:href="#color" fill="#00C3C2"/>
<use id="color172" x="110" y="100" xlink:href="#color" fill="#00AFAE"/>
<use id="color173" x="120" y="100" xlink:href="#color" fill="#009F9E"/>
<use id="color174" x="130" y="100" xlink:href="#color" fill="#008887"/>
<use id="color175" x="140" y="100" xlink:href="#color" fill="#007473"/>
<use id="color176" x="150" y="100" xlink:href="#color" fill="#00605F"/>
<use id="color177" x="0" y="110" xlink:href="#color" fill="#DFFFE2"/>
<use id="color178" x="10" y="110" xlink:href="#color" fill="#C0FFC5"/>
<use id="color179" x="20" y="110" xlink:href="#color" fill="#A0FFA7"/>
<use id="color180" x="30" y="110" xlink:href="#color" fill="#7FFF89"/>
<use id="color181" x="40" y="110" xlink:href="#color" fill="#5FFF6C"/>
<use id="color182" x="50" y="110" xlink:href="#color" fill="#40FF4F"/>
<use id="color183" x="60" y="110" xlink:href="#color" fill="#20FF31"/>
<use id="color184" x="70" y="110" xlink:href="#color" fill="#00FF13"/>
<use id="color185" x="80" y="110" xlink:href="#color" fill="#00EC12"/>
<use id="color186" x="90" y="110" xlink:href="#color" fill="#00D810"/>
<use id="color187" x="100" y="110" xlink:href="#color" fill="#00C40F"/>
<use id="color188" x="110" y="110" xlink:href="#color" fill="#00B00D"/>
<use id="color189" x="120" y="110" xlink:href="#color" fill="#009C0C"/>
<use id="color190" x="130" y="110" xlink:href="#color" fill="#00880A"/>
<use id="color191" x="140" y="110" xlink:href="#color" fill="#007409"/>
<use id="color192" x="150" y="110" xlink:href="#color" fill="#006007"/>
<use id="color193" x="0" y="120" xlink:href="#color" fill="#FFFFDF"/>
<use id="color194" x="10" y="120" xlink:href="#color" fill="#FFFFC0"/>
<use id="color195" x="20" y="120" xlink:href="#color" fill="#FFFFA0"/>
<use id="color196" x="30" y="120" xlink:href="#color" fill="#FFFE7F"/>
<use id="color197" x="40" y="120" xlink:href="#color" fill="#FFFE5F"/>
<use id="color198" x="50" y="120" xlink:href="#color" fill="#FFFE40"/>
<use id="color199" x="60" y="120" xlink:href="#color" fill="#FFFD20"/>
<use id="color200" x="70" y="120" xlink:href="#color" fill="#FFFD00"/>
<use id="color201" x="80" y="120" xlink:href="#color" fill="#ECE900"/>
<use id="color202" x="90" y="120" xlink:href="#color" fill="#D8D600"/>
<use id="color203" x="100" y="120" xlink:href="#color" fill="#C4C200"/>
<use id="color204" x="110" y="120" xlink:href="#color" fill="#B0AE00"/>
<use id="color205" x="120" y="120" xlink:href="#color" fill="#9C9B00"/>
<use id="color206" x="130" y="120" xlink:href="#color" fill="#888700"/>
<use id="color207" x="140" y="120" xlink:href="#color" fill="#747300"/>
<use id="color208" x="150" y="120" xlink:href="#color" fill="#605F00"/>
<use id="color209" x="0" y="130" xlink:href="#color" fill="#FFE4DF"/>
<use id="color210" x="10" y="130" xlink:href="#color" fill="#FFCAC0"/>
<use id="color211" x="20" y="130" xlink:href="#color" fill="#FFAFA0"/>
<use id="color212" x="30" y="130" xlink:href="#color" fill="#FF937F"/>
<use id="color213" x="40" y="130" xlink:href="#color" fill="#FF785F"/>
<use id="color214" x="50" y="130" xlink:href="#color" fill="#FF5E40"/>
<use id="color215" x="60" y="130" xlink:href="#color" fill="#FF4220"/>
<use id="color216" x="70" y="130" xlink:href="#color" fill="#FF2700"/>
<use id="color217" x="80" y="130" xlink:href="#color" fill="#EC2400"/>
<use id="color218" x="90" y="130" xlink:href="#color" fill="#D82100"/>
<use id="color219" x="100" y="130" xlink:href="#color" fill="#CF2000"/>
<use id="color220" x="110" y="130" xlink:href="#color" fill="#B01B00"/>
<use id="color221" x="120" y="130" xlink:href="#color" fill="#9C1800"/>
<use id="color222" x="130" y="130" xlink:href="#color" fill="#881500"/>
<use id="color223" x="140" y="130" xlink:href="#color" fill="#741200"/>
<use id="color224" x="150" y="130" xlink:href="#color" fill="#600E00"/>
<use id="color225" x="0" y="140" xlink:href="#color" fill="#FFDFFF"/>
<use id="color226" x="10" y="140" xlink:href="#color" fill="#FFC0FF"/>
<use id="color227" x="20" y="140" xlink:href="#color" fill="#FFA0FF"/>
<use id="color228" x="30" y="140" xlink:href="#color" fill="#FF7FFF"/>
<use id="color229" x="40" y="140" xlink:href="#color" fill="#FF5FFF"/>
<use id="color230" x="50" y="140" xlink:href="#color" fill="#FF40FF"/>
<use id="color231" x="60" y="140" xlink:href="#color" fill="#FF20FF"/>
<use id="color232" x="70" y="140" xlink:href="#color" fill="#FF00FF"/>
<use id="color233" x="80" y="140" xlink:href="#color" fill="#EC00EB"/>
<use id="color234" x="90" y="140" xlink:href="#color" fill="#D800D7"/>
<use id="color235" x="100" y="140" xlink:href="#color" fill="#CF00CF"/>
<use id="color236" x="110" y="140" xlink:href="#color" fill="#B000B0"/>
<use id="color237" x="120" y="140" xlink:href="#color" fill="#9C009C"/>
<use id="color238" x="130" y="140" xlink:href="#color" fill="#880088"/>
<use id="color239" x="140" y="140" xlink:href="#color" fill="#740074"/>
<use id="color240" x="150" y="140" xlink:href="#color" fill="#600060"/>
<use id="color241" x="0" y="150" xlink:href="#color" fill="#FFFFFF"/>
<use id="color242" x="10" y="150" xlink:href="#color" fill="#EEEEEE"/>
<use id="color243" x="20" y="150" xlink:href="#color" fill="#DDDDDD"/>
<use id="color244" x="30" y="150" xlink:href="#color" fill="#CCCCCC"/>
<use id="color245" x="40" y="150" xlink:href="#color" fill="#C0C0C0"/>
<use id="color246" x="50" y="150" xlink:href="#color" fill="#AAAAAA"/>
<use id="color247" x="60" y="150" xlink:href="#color" fill="#999999"/>
<use id="color248" x="70" y="150" xlink:href="#color" fill="#888888"/>
<use id="color249" x="80" y="150" xlink:href="#color" fill="#777777"/>
<use id="color250" x="90" y="150" xlink:href="#color" fill="#666666"/>
<use id="color251" x="100" y="150" xlink:href="#color" fill="#555555"/>
<use id="color252" x="110" y="150" xlink:href="#color" fill="#404040"/>
<use id="color253" x="120" y="150" xlink:href="#color" fill="#333333"/>
<use id="color254" x="130" y="150" xlink:href="#color" fill="#222222"/>
<use id="color255" x="140" y="150" xlink:href="#color" fill="#111111"/>
<use id="color256" x="150" y="150" xlink:href="#color" fill="#000000"/>
  		
<!--		
<rect id="select" transform="translate=(-1,-1)" x="0" y="0" width="12" height="12" shape-rendering="crispEdges" fill-opacity="0" stroke="white" stroke-width="1" stroke-opacity="1"/>
	-->	
</svg>