<?xml version="1.0" encoding="UTF-8" standalone="no"?>
<svg
  xmlns:svg="http://www.w3.org/2000/svg" 
  xmlns="http://www.w3.org/2000/svg"
  xmlns:xlink="http://www.w3.org/1999/xlink"
  xmlns:label="http://www.4d.com/2014/label"
  width="160"
  height="160" 
  viewport-fill="#FF00FF"
  viewport-fill-opacity="0">

  <defs>
	
	<rect id="color" width="10" height="10" shape-rendering="crispEdges" fill-opacity="1" stroke="none" stroke-width="1" stroke-opacity="1"/>
	
  </defs>
  
  <defs id="setting" label:landscape="false" label:vertical="false" />   

<use id="color1" x="0" y="0" xlink:href="#color" fill="#FFFFFF"/>
<use id="color2" x="10" y="0" xlink:href="#color" fill="#FFFF00"/>
<use id="color3" x="20" y="0" xlink:href="#color" fill="#FF6600"/>
<use id="color4" x="30" y="0" xlink:href="#color" fill="#EE0000"/>
<use id="color5" x="40" y="0" xlink:href="#color" fill="#FF0099"/>
<use id="color6" x="50" y="0" xlink:href="#color" fill="#000099"/>
<use id="color7" x="60" y="0" xlink:href="#color" fill="#0000FF"/>
<use id="color8" x="70" y="0" xlink:href="#color" fill="#0099FF"/>
<use id="color9" x="80" y="0" xlink:href="#color" fill="#00BB00"/>
<use id="color10" x="90" y="0" xlink:href="#color" fill="#009900"/>
<use id="color11" x="100" y="0" xlink:href="#color" fill="#663300"/>
<use id="color12" x="110" y="0" xlink:href="#color" fill="#444444"/>
<use id="color13" x="120" y="0" xlink:href="#color" fill="#DDDDDD"/>
<use id="color14" x="130" y="0" xlink:href="#color" fill="#996600"/>
<use id="color15" x="140" y="0" xlink:href="#color" fill="#AAAAAA"/>
<use id="color16" x="150" y="0" xlink:href="#color" fill="#000000"/>
<use id="color17" x="0" y="10" xlink:href="#color" fill="#FF005E"/>
<use id="color18" x="10" y="10" xlink:href="#color" fill="#FF0456"/>
<use id="color19" x="20" y="10" xlink:href="#color" fill="#FF0048"/>
<use id="color20" x="30" y="10" xlink:href="#color" fill="#FF004B"/>
<use id="color21" x="40" y="10" xlink:href="#color" fill="#FF0032"/>
<use id="color22" x="50" y="10" xlink:href="#color" fill="#FF0027"/>
<use id="color23" x="60" y="10" xlink:href="#color" fill="#FF001C"/>
<use id="color24" x="70" y="10" xlink:href="#color" fill="#FF0011"/>
<use id="color25" x="80" y="10" xlink:href="#color" fill="#FF0006"/>
<use id="color26" x="90" y="10" xlink:href="#color" fill="#FF0400"/>
<use id="color27" x="100" y="10" xlink:href="#color" fill="#FF0F00"/>
<use id="color28" x="110" y="10" xlink:href="#color" fill="#FF1A00"/>
<use id="color29" x="120" y="10" xlink:href="#color" fill="#FF2500"/>
<use id="color30" x="130" y="10" xlink:href="#color" fill="#FF3000"/>
<use id="color31" x="140" y="10" xlink:href="#color" fill="#FF3B00"/>
<use id="color32" x="150" y="10" xlink:href="#color" fill="#FF4600"/>
<use id="color33" x="0" y="20" xlink:href="#color" fill="#FF4D00"/>
<use id="color34" x="10" y="20" xlink:href="#color" fill="#FF5400"/>
<use id="color35" x="20" y="20" xlink:href="#color" fill="#FF5B00"/>
<use id="color36" x="30" y="20" xlink:href="#color" fill="#FF6200"/>
<use id="color37" x="40" y="20" xlink:href="#color" fill="#FF6900"/>
<use id="color38" x="50" y="20" xlink:href="#color" fill="#FF7203"/>
<use id="color39" x="60" y="20" xlink:href="#color" fill="#FF7C04"/>
<use id="color40" x="70" y="20" xlink:href="#color" fill="#FF8202"/>
<use id="color41" x="80" y="20" xlink:href="#color" fill="#FF8A06"/>
<use id="color42" x="90" y="20" xlink:href="#color" fill="#FF9203"/>
<use id="color43" x="100" y="20" xlink:href="#color" fill="#FF9902"/>
<use id="color44" x="110" y="20" xlink:href="#color" fill="#FFA003"/>
<use id="color45" x="120" y="20" xlink:href="#color" fill="#FF9F00"/>
<use id="color46" x="130" y="20" xlink:href="#color" fill="#FFAE10"/>
<use id="color47" x="140" y="20" xlink:href="#color" fill="#FFB107"/>
<use id="color48" x="150" y="20" xlink:href="#color" fill="#FFB804"/>
<use id="color49" x="0" y="30" xlink:href="#color" fill="#FFC000"/>
<use id="color50" x="10" y="30" xlink:href="#color" fill="#FFC704"/>
<use id="color51" x="20" y="30" xlink:href="#color" fill="#FFCE00"/>
<use id="color52" x="30" y="30" xlink:href="#color" fill="#FFD700"/>
<use id="color53" x="40" y="30" xlink:href="#color" fill="#FFDF03"/>
<use id="color54" x="50" y="30" xlink:href="#color" fill="#FFE605"/>
<use id="color55" x="60" y="30" xlink:href="#color" fill="#FFEF0A"/>
<use id="color56" x="70" y="30" xlink:href="#color" fill="#FFF604"/>
<use id="color57" x="80" y="30" xlink:href="#color" fill="#FFFD06"/>
<use id="color58" x="90" y="30" xlink:href="#color" fill="#F9FF00"/>
<use id="color59" x="100" y="30" xlink:href="#color" fill="#F2FF04"/>
<use id="color60" x="110" y="30" xlink:href="#color" fill="#EBFF00"/>
<use id="color61" x="120" y="30" xlink:href="#color" fill="#E2FF00"/>
<use id="color62" x="130" y="30" xlink:href="#color" fill="#D3FF00"/>
<use id="color63" x="140" y="30" xlink:href="#color" fill="#CAFF00"/>
<use id="color64" x="150" y="30" xlink:href="#color" fill="#C3FF00"/>
<use id="color65" x="0" y="40" xlink:href="#color" fill="#BCFF00"/>
<use id="color66" x="10" y="40" xlink:href="#color" fill="#A6FF00"/>
<use id="color67" x="20" y="40" xlink:href="#color" fill="#90FF00"/>
<use id="color68" x="30" y="40" xlink:href="#color" fill="#7AFF00"/>
<use id="color69" x="40" y="40" xlink:href="#color" fill="#64FF00"/>
<use id="color70" x="50" y="40" xlink:href="#color" fill="#4FFF00"/>
<use id="color71" x="60" y="40" xlink:href="#color" fill="#3CFF03"/>
<use id="color72" x="70" y="40" xlink:href="#color" fill="#0CFF00"/>
<use id="color73" x="80" y="40" xlink:href="#color" fill="#03FF0C"/>
<use id="color74" x="90" y="40" xlink:href="#color" fill="#04FF23"/>
<use id="color75" x="100" y="40" xlink:href="#color" fill="#00FF35"/>
<use id="color76" x="110" y="40" xlink:href="#color" fill="#00FF4B"/>
<use id="color77" x="120" y="40" xlink:href="#color" fill="#00FF60"/>
<use id="color78" x="130" y="40" xlink:href="#color" fill="#00FF76"/>
<use id="color79" x="140" y="40" xlink:href="#color" fill="#00FF8C"/>
<use id="color80" x="150" y="40" xlink:href="#color" fill="#00FFA7"/>
<use id="color81" x="0" y="50" xlink:href="#color" fill="#00FFA7"/>
<use id="color82" x="10" y="50" xlink:href="#color" fill="#00FFB1"/>
<use id="color83" x="20" y="50" xlink:href="#color" fill="#00FFBB"/>
<use id="color84" x="30" y="50" xlink:href="#color" fill="#00FFC5"/>
<use id="color85" x="40" y="50" xlink:href="#color" fill="#00FFD0"/>
<use id="color86" x="50" y="50" xlink:href="#color" fill="#00FFDA"/>
<use id="color87" x="60" y="50" xlink:href="#color" fill="#00FFE4"/>
<use id="color88" x="70" y="50" xlink:href="#color" fill="#00FFEE"/>
<use id="color89" x="80" y="50" xlink:href="#color" fill="#00FFF8"/>
<use id="color90" x="90" y="50" xlink:href="#color" fill="#00FDFF"/>
<use id="color91" x="100" y="50" xlink:href="#color" fill="#00F3FF"/>
<use id="color92" x="110" y="50" xlink:href="#color" fill="#00E9FF"/>
<use id="color93" x="120" y="50" xlink:href="#color" fill="#00E0FF"/>
<use id="color94" x="130" y="50" xlink:href="#color" fill="#00D5FF"/>
<use id="color95" x="140" y="50" xlink:href="#color" fill="#00CBFF"/>
<use id="color96" x="150" y="50" xlink:href="#color" fill="#00C1FF"/>
<use id="color97" x="0" y="60" xlink:href="#color" fill="#00B4FF"/>
<use id="color98" x="10" y="60" xlink:href="#color" fill="#00A1FF"/>
<use id="color99" x="20" y="60" xlink:href="#color" fill="#008EFF"/>
<use id="color100" x="30" y="60" xlink:href="#color" fill="#007CFF"/>
<use id="color101" x="40" y="60" xlink:href="#color" fill="#0069FF"/>
<use id="color102" x="50" y="60" xlink:href="#color" fill="#0056FF"/>
<use id="color103" x="60" y="60" xlink:href="#color" fill="#0043FF"/>
<use id="color104" x="70" y="60" xlink:href="#color" fill="#0128FF"/>
<use id="color105" x="80" y="60" xlink:href="#color" fill="#001EFF"/>
<use id="color106" x="90" y="60" xlink:href="#color" fill="#000BFF"/>
<use id="color107" x="100" y="60" xlink:href="#color" fill="#0700FF"/>
<use id="color108" x="110" y="60" xlink:href="#color" fill="#1900FF"/>
<use id="color109" x="120" y="60" xlink:href="#color" fill="#2C00FF"/>
<use id="color110" x="130" y="60" xlink:href="#color" fill="#3F00FF"/>
<use id="color111" x="140" y="60" xlink:href="#color" fill="#5200FF"/>
<use id="color112" x="150" y="60" xlink:href="#color" fill="#6500FF"/>
<use id="color113" x="0" y="70" xlink:href="#color" fill="#7800FF"/>
<use id="color114" x="10" y="70" xlink:href="#color" fill="#8B00FF"/>
<use id="color115" x="20" y="70" xlink:href="#color" fill="#9E00FF"/>
<use id="color116" x="30" y="70" xlink:href="#color" fill="#B100FF"/>
<use id="color117" x="40" y="70" xlink:href="#color" fill="#C400FF"/>
<use id="color118" x="50" y="70" xlink:href="#color" fill="#D700FF"/>
<use id="color119" x="60" y="70" xlink:href="#color" fill="#EA00FF"/>
<use id="color120" x="70" y="70" xlink:href="#color" fill="#FD00FF"/>
<use id="color121" x="80" y="70" xlink:href="#color" fill="#FF03EF"/>
<use id="color122" x="90" y="70" xlink:href="#color" fill="#FF00DC"/>
<use id="color123" x="100" y="70" xlink:href="#color" fill="#FF00C9"/>
<use id="color124" x="110" y="70" xlink:href="#color" fill="#FF00B6"/>
<use id="color125" x="120" y="70" xlink:href="#color" fill="#FF00A3"/>
<use id="color126" x="130" y="70" xlink:href="#color" fill="#FF0090"/>
<use id="color127" x="140" y="70" xlink:href="#color" fill="#FF007D"/>
<use id="color128" x="150" y="70" xlink:href="#color" fill="#FF006A"/>
<use id="color129" x="0" y="80" xlink:href="#color" fill="#FFE0E0"/>
<use id="color130" x="10" y="80" xlink:href="#color" fill="#FFC0C0"/>
<use id="color131" x="20" y="80" xlink:href="#color" fill="#FFA0A0"/>
<use id="color132" x="30" y="80" xlink:href="#color" fill="#FF7F7F"/>
<use id="color133" x="40" y="80" xlink:href="#color" fill="#FF5F5F"/>
<use id="color134" x="50" y="80" xlink:href="#color" fill="#FF4040"/>
<use id="color135" x="60" y="80" xlink:href="#color" fill="#FF2020"/>
<use id="color136" x="70" y="80" xlink:href="#color" fill="#FF0000"/>
<use id="color137" x="80" y="80" xlink:href="#color" fill="#EC0F00"/>
<use id="color138" x="90" y="80" xlink:href="#color" fill="#D80000"/>
<use id="color139" x="100" y="80" xlink:href="#color" fill="#CF0000"/>
<use id="color140" x="110" y="80" xlink:href="#color" fill="#B00000"/>
<use id="color141" x="120" y="80" xlink:href="#color" fill="#9C0000"/>
<use id="color142" x="130" y="80" xlink:href="#color" fill="#880000"/>
<use id="color143" x="140" y="80" xlink:href="#color" fill="#740000"/>
<use id="color144" x="150" y="80" xlink:href="#color" fill="#600000"/>
<use id="color145" x="0" y="90" xlink:href="#color" fill="#FFF0DF"/>
<use id="color146" x="10" y="90" xlink:href="#color" fill="#FFE0C0"/>
<use id="color147" x="20" y="90" xlink:href="#color" fill="#FFCFA0"/>
<use id="color148" x="30" y="90" xlink:href="#color" fill="#FFBE7F"/>
<use id="color149" x="40" y="90" xlink:href="#color" fill="#FFB05F"/>
<use id="color150" x="50" y="90" xlink:href="#color" fill="#FFA140"/>
<use id="color151" x="60" y="90" xlink:href="#color" fill="#FF9120"/>
<use id="color152" x="70" y="90" xlink:href="#color" fill="#FF8100"/>
<use id="color153" x="80" y="90" xlink:href="#color" fill="#EC7700"/>
<use id="color154" x="90" y="90" xlink:href="#color" fill="#D86D00"/>
<use id="color155" x="100" y="90" xlink:href="#color" fill="#C46300"/>
<use id="color156" x="110" y="90" xlink:href="#color" fill="#B05900"/>
<use id="color157" x="120" y="90" xlink:href="#color" fill="#9C5200"/>
<use id="color158" x="130" y="90" xlink:href="#color" fill="#884500"/>
<use id="color159" x="140" y="90" xlink:href="#color" fill="#743B00"/>
<use id="color160" x="150" y="90" xlink:href="#color" fill="#603000"/>
<use id="color161" x="0" y="100" xlink:href="#color" fill="#FFFFDF"/>
<use id="color162" x="10" y="100" xlink:href="#color" fill="#FFFFC0"/>
<use id="color163" x="20" y="100" xlink:href="#color" fill="#FFFFA0"/>
<use id="color164" x="30" y="100" xlink:href="#color" fill="#FFFF7F"/>
<use id="color165" x="40" y="100" xlink:href="#color" fill="#FEFF5F"/>
<use id="color166" x="50" y="100" xlink:href="#color" fill="#FEFF40"/>
<use id="color167" x="60" y="100" xlink:href="#color" fill="#FEFF20"/>
<use id="color168" x="70" y="100" xlink:href="#color" fill="#FEFF00"/>
<use id="color169" x="80" y="100" xlink:href="#color" fill="#EAEC00"/>
<use id="color170" x="90" y="100" xlink:href="#color" fill="#D6D700"/>
<use id="color171" x="100" y="100" xlink:href="#color" fill="#C2C300"/>
<use id="color172" x="110" y="100" xlink:href="#color" fill="#AEAF00"/>
<use id="color173" x="120" y="100" xlink:href="#color" fill="#9E9F00"/>
<use id="color174" x="130" y="100" xlink:href="#color" fill="#878800"/>
<use id="color175" x="140" y="100" xlink:href="#color" fill="#737400"/>
<use id="color176" x="150" y="100" xlink:href="#color" fill="#5F6000"/>
<use id="color177" x="0" y="110" xlink:href="#color" fill="#E2FFDF"/>
<use id="color178" x="10" y="110" xlink:href="#color" fill="#C5FFC0"/>
<use id="color179" x="20" y="110" xlink:href="#color" fill="#A7FFA0"/>
<use id="color180" x="30" y="110" xlink:href="#color" fill="#89FF7F"/>
<use id="color181" x="40" y="110" xlink:href="#color" fill="#6CFF5F"/>
<use id="color182" x="50" y="110" xlink:href="#color" fill="#4FFF40"/>
<use id="color183" x="60" y="110" xlink:href="#color" fill="#31FF20"/>
<use id="color184" x="70" y="110" xlink:href="#color" fill="#13FF00"/>
<use id="color185" x="80" y="110" xlink:href="#color" fill="#12EC00"/>
<use id="color186" x="90" y="110" xlink:href="#color" fill="#10D800"/>
<use id="color187" x="100" y="110" xlink:href="#color" fill="#0FC400"/>
<use id="color188" x="110" y="110" xlink:href="#color" fill="#0DB000"/>
<use id="color189" x="120" y="110" xlink:href="#color" fill="#0C9C00"/>
<use id="color190" x="130" y="110" xlink:href="#color" fill="#0A8800"/>
<use id="color191" x="140" y="110" xlink:href="#color" fill="#097400"/>
<use id="color192" x="150" y="110" xlink:href="#color" fill="#076000"/>
<use id="color193" x="0" y="120" xlink:href="#color" fill="#DFFFFF"/>
<use id="color194" x="10" y="120" xlink:href="#color" fill="#C0FFFF"/>
<use id="color195" x="20" y="120" xlink:href="#color" fill="#A0FFFF"/>
<use id="color196" x="30" y="120" xlink:href="#color" fill="#7FFEFF"/>
<use id="color197" x="40" y="120" xlink:href="#color" fill="#5FFEFF"/>
<use id="color198" x="50" y="120" xlink:href="#color" fill="#40FEFF"/>
<use id="color199" x="60" y="120" xlink:href="#color" fill="#20FDFF"/>
<use id="color200" x="70" y="120" xlink:href="#color" fill="#00FDFF"/>
<use id="color201" x="80" y="120" xlink:href="#color" fill="#00E9EC"/>
<use id="color202" x="90" y="120" xlink:href="#color" fill="#00D6D8"/>
<use id="color203" x="100" y="120" xlink:href="#color" fill="#00C2C4"/>
<use id="color204" x="110" y="120" xlink:href="#color" fill="#00AEB0"/>
<use id="color205" x="120" y="120" xlink:href="#color" fill="#009B9C"/>
<use id="color206" x="130" y="120" xlink:href="#color" fill="#008788"/>
<use id="color207" x="140" y="120" xlink:href="#color" fill="#007374"/>
<use id="color208" x="150" y="120" xlink:href="#color" fill="#005F60"/>
<use id="color209" x="0" y="130" xlink:href="#color" fill="#DFE4FF"/>
<use id="color210" x="10" y="130" xlink:href="#color" fill="#C0CAFF"/>
<use id="color211" x="20" y="130" xlink:href="#color" fill="#A0AFFF"/>
<use id="color212" x="30" y="130" xlink:href="#color" fill="#7F93FF"/>
<use id="color213" x="40" y="130" xlink:href="#color" fill="#5F78FF"/>
<use id="color214" x="50" y="130" xlink:href="#color" fill="#405EFF"/>
<use id="color215" x="60" y="130" xlink:href="#color" fill="#2042FF"/>
<use id="color216" x="70" y="130" xlink:href="#color" fill="#0027FF"/>
<use id="color217" x="80" y="130" xlink:href="#color" fill="#0024EC"/>
<use id="color218" x="90" y="130" xlink:href="#color" fill="#0021D8"/>
<use id="color219" x="100" y="130" xlink:href="#color" fill="#0020CF"/>
<use id="color220" x="110" y="130" xlink:href="#color" fill="#001BB0"/>
<use id="color221" x="120" y="130" xlink:href="#color" fill="#00189C"/>
<use id="color222" x="130" y="130" xlink:href="#color" fill="#001588"/>
<use id="color223" x="140" y="130" xlink:href="#color" fill="#001274"/>
<use id="color224" x="150" y="130" xlink:href="#color" fill="#000E60"/>
<use id="color225" x="0" y="140" xlink:href="#color" fill="#FFDFFF"/>
<use id="color226" x="10" y="140" xlink:href="#color" fill="#FFC0FF"/>
<use id="color227" x="20" y="140" xlink:href="#color" fill="#FFA0FF"/>
<use id="color228" x="30" y="140" xlink:href="#color" fill="#FF7FFF"/>
<use id="color229" x="40" y="140" xlink:href="#color" fill="#FF5FFF"/>
<use id="color230" x="50" y="140" xlink:href="#color" fill="#FF40FF"/>
<use id="color231" x="60" y="140" xlink:href="#color" fill="#FF20FF"/>
<use id="color232" x="70" y="140" xlink:href="#color" fill="#FF00FF"/>
<use id="color233" x="80" y="140" xlink:href="#color" fill="#EB00EC"/>
<use id="color234" x="90" y="140" xlink:href="#color" fill="#D700D8"/>
<use id="color235" x="100" y="140" xlink:href="#color" fill="#CF00CF"/>
<use id="color236" x="110" y="140" xlink:href="#color" fill="#B000B0"/>
<use id="color237" x="120" y="140" xlink:href="#color" fill="#9C009C"/>
<use id="color238" x="130" y="140" xlink:href="#color" fill="#880088"/>
<use id="color239" x="140" y="140" xlink:href="#color" fill="#740074"/>
<use id="color240" x="150" y="140" xlink:href="#color" fill="#600060"/>
<use id="color241" x="0" y="150" xlink:href="#color" fill="#FFFFFF"/>
<use id="color242" x="10" y="150" xlink:href="#color" fill="#EEEEEE"/>
<use id="color243" x="20" y="150" xlink:href="#color" fill="#DDDDDD"/>
<use id="color244" x="30" y="150" xlink:href="#color" fill="#CCCCCC"/>
<use id="color245" x="40" y="150" xlink:href="#color" fill="#C0C0C0"/>
<use id="color246" x="50" y="150" xlink:href="#color" fill="#AAAAAA"/>
<use id="color247" x="60" y="150" xlink:href="#color" fill="#999999"/>
<use id="color248" x="70" y="150" xlink:href="#color" fill="#888888"/>
<use id="color249" x="80" y="150" xlink:href="#color" fill="#777777"/>
<use id="color250" x="90" y="150" xlink:href="#color" fill="#666666"/>
<use id="color251" x="100" y="150" xlink:href="#color" fill="#555555"/>
<use id="color252" x="110" y="150" xlink:href="#color" fill="#404040"/>
<use id="color253" x="120" y="150" xlink:href="#color" fill="#333333"/>
<use id="color254" x="130" y="150" xlink:href="#color" fill="#222222"/>
<use id="color255" x="140" y="150" xlink:href="#color" fill="#111111"/>
<use id="color256" x="150" y="150" xlink:href="#color" fill="#000000"/>
  		
<!--		
<rect id="select" transform="translate=(-1,-1)" x="0" y="0" width="12" height="12" shape-rendering="crispEdges" fill-opacity="0" stroke="white" stroke-width="1" stroke-opacity="1"/>
	-->	
</svg>